# vertices:	175
# normals:	175
# faces:	346
# AABB:	{-1.09979, -1.35694, -1.39078} .. {1.96423, 1.70856, 0.991243}
v 0.339213 -1.2425 0.605943
v -0.0822469 -1.337 0.562963
v 0.232673 -1.31386 0.887583
v 0.676793 -1.26502 0.0821233
v 1.15177 -1.3307 -0.205137
v -0.434807 -1.31224 0.742203
v -0.0565269 -1.3473 -0.766117
v -0.0598068 -1.29636 0.683043
v 0.264733 -1.3565 -0.694537
v -0.580207 -1.27202 0.575563
v -0.703167 -1.30054 -0.0960567
v -0.497567 -1.35436 -0.329417
v 1.03715 -1.304 0.696883
v -0.511607 -1.3241 0.215003
v 0.951453 -1.32334 0.516283
v 1.25765 -1.3194 0.249323
v -0.200147 -1.35694 -0.413937
v -0.0911669 -1.35566 -0.136817
v -0.376727 -1.2307 0.698963
v -0.450487 -1.3233 -0.112877
v 0.372133 -1.33816 -0.340837
v -0.356567 1.02236 0.365283
v 0.431133 1.70856 -0.642597
v -1.04029 1.00208 0.107963
v -0.390527 1.08264 0.0908833
v -0.645407 1.15058 -0.292717
v -1.09979 0.26646 0.0914033
v -0.696227 1.59292 -1.23196
v 0.805093 0.59286 -0.101997
v 0.0915931 -1.01372 -0.405637
v 0.0745131 1.0239 -0.207097
v 1.55113 0.0846205 -0.111677
v 1.96423 -0.78082 0.0469033
v 0.767773 0.56314 0.343443
v 1.52577 -1.2115 -0.187477
v -0.640447 0.4581 0.877963
v -0.626267 0.1395 0.575543
v -0.242507 0.837161 -0.0271967
v 1.80705 -1.04388 -0.130077
v 0.834013 -0.98772 0.890223
v -0.523447 1.18894 -1.31532
v 0.186853 0.4673 0.193683
v -0.351127 -0.4317 -0.590357
v -0.525607 -0.24658 0.729083
v 0.173973 -0.9358 0.552323
v 1.75199 -0.835639 0.431963
v -0.0674868 -1.13208 -0.621337
v 0.734553 -0.478719 0.991243
v -0.263207 -0.74174 0.524143
v -0.149907 0.922621 -0.227097
v -0.543007 0.82466 -0.348197
v -0.205567 -0.99044 0.571523
v 0.539353 1.35938 -0.673697
v 1.17333 -0.0486596 0.746203
v -0.145827 0.1147 0.627263
v 1.90711 -0.65546 -0.0680167
v -0.0324469 0.41656 0.381223
v 1.89527 -0.95146 0.251383
v -0.153907 0.45278 0.307143
v -0.541767 1.3627 -1.39078
v -0.583867 0.93846 0.612363
v 0.253033 1.63588 -0.383677
v 0.234073 -0.13608 0.717563
v 0.167073 -0.13766 -0.669577
v 1.63651 -0.220619 -0.191337
v 0.554153 0.421041 0.522283
v 0.116033 1.16298 -0.138997
v -0.633947 0.28704 0.850483
v 1.43391 -0.16868 0.614403
v 0.739533 -0.0721196 0.875163
v 1.15649 0.36008 0.495363
v -0.476327 0.369101 0.656943
v -0.970407 -0.4422 0.134903
v 0.303393 -1.19344 0.902363
v 1.43225 -0.76072 0.607303
v 0.534313 1.31178 -0.516917
v -0.485667 1.48732 -1.38872
v 0.451693 1.19802 -0.405617
v -1.02315 -0.27844 -0.0656967
v -0.436207 0.53652 -0.318857
v -0.665027 0.98464 -1.04436
v 0.976113 -1.31536 -0.606817
v -0.496607 1.11018 -0.546897
v 1.77291 -0.77424 -0.230377
v 0.466113 -0.0312396 -0.650057
v -0.268707 -1.07946 0.178203
v -1.07981 0.92272 0.307383
v 0.700433 -0.12586 -0.829297
v 1.51591 -1.15418 0.408103
v 1.61221 -0.10912 0.267763
v 0.526533 1.54358 -0.770857
v 1.81971 -1.07226 0.208883
v 1.94751 -0.69794 0.188103
v -0.926427 1.05446 0.252043
v -0.753227 1.40496 -0.851777
v 1.69721 -0.59612 0.224183
v 1.69135 -0.55534 0.0436433
v -0.562107 1.0721 0.407543
v -0.100487 0.527821 0.148043
v 1.30413 0.37992 0.310703
v 1.28521 0.41692 -0.0385567
v 1.03645 0.5374 0.297203
v 0.361233 -0.632 0.890023
v -0.823307 1.49972 -1.1369
v -0.841567 1.3325 -0.915377
v -0.845787 0.89498 0.660723
v -0.570487 -0.5245 -0.503317
v -0.774487 -0.30586 0.598103
v -0.962087 0.57018 0.814783
v -0.654527 -1.18342 -0.0302167
v -1.09153 0.322201 0.668303
v -0.322467 1.22728 -0.134257
v -0.670267 1.55868 -1.31434
v -0.618807 1.16452 -1.27594
v -0.712587 1.22132 -0.954477
v 0.146553 -0.53092 -0.846357
v 0.874793 0.38532 -0.454357
v 0.675993 0.50874 -0.305477
v -0.945987 -0.20348 -0.266457
v -0.845707 -0.53586 -0.245917
v -0.401627 -0.84752 -0.184477
v -0.991007 0.39678 -0.209577
v -0.802727 1.02898 -0.212937
v 1.47521 -0.25246 -0.493517
v 1.14371 0.31158 -0.415737
v 1.41983 0.0478206 -0.412457
v 1.67135 -0.62068 -0.105077
v 0.435933 1.68244 -0.687377
v 0.227653 -0.265339 -0.889757
v 0.181893 1.5241 -0.510617
v -0.293847 0.169981 -0.546157
v -0.171887 0.50956 -0.296317
v -0.415607 0.91556 -0.212457
v -0.751967 -0.27102 -0.471097
v 1.48939 -0.93128 -0.299057
v 1.15153 -0.98432 -0.689877
v 0.728313 -0.37472 -0.908777
v 0.550633 -0.94372 -0.848097
v 0.327893 -0.37288 -0.953537
v 0.311593 -1.12592 -0.735577
v -1.00633 0.21294 0.646063
v -0.654227 -0.79374 0.0382433
v 0.892273 -1.24406 0.433303
v -1.00791 -0.0142796 -0.122377
v -0.955527 0.0435405 -0.141897
v -0.453147 -1.19348 0.413483
v -0.360067 -1.2075 0.488443
v 0.0979131 0.30682 -0.448937
v -0.0201069 -0.17306 0.721423
v -0.409047 -0.64378 -0.479497
v -0.342267 -1.18248 0.532883
v -0.733867 1.00682 -0.628657
v 0.164733 -1.18032 0.770223
v -0.705487 0.964481 -0.406217
v -0.594207 0.987621 -0.320457
v -0.168267 0.60858 -0.0726767
v -0.284367 0.9052 -0.187177
v -0.728327 0.72962 -0.280917
v -0.413847 0.727901 -0.239817
v 0.0450731 -0.5879 0.600763
v -0.433507 0.455841 0.635183
v -0.458047 -1.25844 -0.196137
v -0.176487 1.26664 -0.0669567
v 0.0475332 -1.1308 0.623023
v 0.293653 1.20368 -0.514497
v -0.872367 0.79512 -0.211697
v -0.716767 0.6587 -0.294437
v -0.479167 0.93266 -0.164397
v -0.533167 1.0078 -0.834417
v 0.396653 1.2628 -0.392537
v 0.264473 1.23162 -0.540937
v -0.730207 0.80788 -0.270617
v -0.474687 0.787601 0.578583
v 0.175313 -1.22974 0.825023
v 0.425873 1.5379 -0.694837
vn 0.0511631 -0.998563 -0.0159408
vn 0.062831 -0.997616 0.0285561
vn -0.0123828 -0.984633 0.174196
vn 0.0240065 -0.997079 0.0725066
vn 0.121923 -0.986313 -0.111006
vn -0.225887 -0.907245 0.354797
vn -0.400599 -0.312032 -0.861485
vn -0.142582 0.131354 0.981028
vn 0.0640291 -0.90934 -0.411097
vn -0.96468 0.225935 0.135447
vn -0.556354 -0.830336 0.031804
vn -0.335346 -0.863147 -0.377518
vn 0.382519 -0.578894 0.720112
vn -0.379181 -0.917681 0.118678
vn -0.102362 -0.97533 -0.195585
vn 0.230976 -0.971066 0.0606674
vn -0.620723 -0.32427 -0.713829
vn 0.054773 -0.996932 0.0559175
vn -0.2604 0.590621 0.763779
vn -0.0860687 -0.994874 0.0530775
vn 0.0722381 -0.994271 0.0787854
vn 0.801792 0.459619 0.381942
vn 0.819958 0.389698 0.419291
vn -0.879243 0.330999 -0.342595
vn 0.434667 0.816253 0.380519
vn 0.18725 0.965118 0.182989
vn -0.984 -0.130866 0.120908
vn 0.292558 0.890516 0.348411
vn 0.0946548 0.980313 -0.17328
vn -0.581073 -0.131435 -0.803168
vn 0.570642 -0.752168 0.329562
vn 0.854864 0.511214 -0.088698
vn 0.957832 -0.227579 -0.175399
vn -0.0622873 0.946188 0.317567
vn 0.406723 -0.858317 -0.312841
vn 0.401593 0.268337 0.875625
vn -0.254989 -0.133909 0.957627
vn 0.981966 0.178778 -0.0614839
vn 0.714968 -0.465033 -0.522078
vn 0.305545 -0.128645 0.943447
vn 0.910019 -0.359858 -0.205835
vn -0.0789004 0.99193 0.0992438
vn -0.141435 -0.134115 -0.980821
vn -0.133486 -0.0522896 0.98967
vn -0.583651 0.0741556 0.808612
vn 0.565695 0.0784782 0.820872
vn -0.577692 0.703624 -0.413746
vn 0.0317385 0.0875161 0.995657
vn -0.37828 -0.527487 0.760698
vn 0.193104 -0.866509 -0.460297
vn 0.214483 -0.276296 -0.936834
vn -0.468354 0.380912 0.797214
vn 0.179638 -0.442493 -0.878596
vn 0.377651 0.225382 0.898099
vn -0.0734057 0.479866 0.874265
vn 0.730009 0.483767 -0.482759
vn -0.133956 0.816663 0.561353
vn 0.82575 -0.409649 0.387718
vn 0.562681 0.366198 0.74114
vn -0.394019 -0.154059 -0.906099
vn 0.236451 0.52778 0.815806
vn 0.230488 0.680075 0.69597
vn -0.302796 0.170377 0.937702
vn -0.377052 0.127151 -0.917423
vn 0.952631 0.188814 -0.23842
vn -0.0535356 0.628531 0.77594
vn 0.504553 0.0699658 0.860541
vn -0.0206471 -0.571524 0.820325
vn 0.745153 0.227378 0.626934
vn -0.0690449 0.45017 0.890269
vn 0.317045 0.604289 0.73097
vn 0.732611 -0.45116 0.509642
vn -0.869205 -0.415098 0.268657
vn -0.220748 -0.0750913 0.972436
vn 0.544108 -0.068591 0.836207
vn 0.789591 0.272522 0.549798
vn 0.788662 0.584765 0.1899
vn 0.540763 -0.841085 0.0123321
vn -0.956088 -0.222643 -0.190596
vn 0.0423452 0.365905 -0.929688
vn -0.462404 -0.825075 -0.324705
vn 0.268178 -0.868239 -0.417422
vn 0.986931 0.105656 0.121672
vn 0.384415 0.176789 -0.906075
vn -0.095231 0.549463 -0.830073
vn -0.859422 0.379426 0.34268
vn -0.945173 0.264596 0.191409
vn 0.190453 0.49388 -0.848416
vn 0.513354 -0.57444 0.637563
vn 0.921244 0.318247 0.223671
vn 0.691486 0.191872 -0.696442
vn 0.497032 -0.862843 0.091984
vn 0.708813 0.571717 0.413188
vn -0.270352 0.939928 0.208436
vn -0.00360101 0.90285 0.429942
vn 0.805216 0.283841 0.520635
vn 0.900416 0.434538 -0.0206792
vn -0.0135879 0.967276 0.253361
vn 0.766425 0.633105 0.108493
vn 0.749326 0.59463 0.29142
vn 0.559092 0.799934 -0.217994
vn 0.329975 0.933505 0.140302
vn -0.495159 0.0197202 0.868578
vn -0.934451 -0.0283712 -0.35496
vn -0.981499 -0.178559 -0.0691106
vn -0.361147 0.734409 0.574644
vn -0.468589 -0.549018 -0.692101
vn -0.69627 -0.32321 0.640893
vn -0.496891 0.284214 0.819952
vn -0.732207 0.66054 0.166012
vn -0.934882 -0.0832935 0.345047
vn -0.73913 0.628557 -0.242079
vn -0.794265 -0.181627 -0.579788
vn -0.863685 -0.22677 -0.450137
vn -0.883419 -0.35456 -0.306364
vn -0.875886 -0.119543 -0.467476
vn -4.86413e-05 0.682658 -0.730738
vn -0.0570614 0.861639 -0.504304
vn -0.810053 -0.0647397 -0.582772
vn -0.68759 -0.594927 -0.416272
vn -0.755338 -0.453359 -0.473213
vn -0.777533 0.0787534 -0.623891
vn -0.965508 0.0942735 -0.242706
vn 0.639546 0.0539623 -0.766857
vn 0.406154 0.645878 -0.646436
vn 0.590383 0.449284 -0.670516
vn 0.771014 0.153591 -0.618018
vn -0.660243 0.477031 -0.580104
vn -0.402347 0.580003 -0.708317
vn -0.611631 0.23349 -0.755903
vn -0.171729 0.323533 -0.930503
vn 0.135884 0.888682 -0.437927
vn -0.52441 0.0401281 -0.85052
vn -0.437205 0.0880093 -0.895045
vn 0.659139 -0.310848 -0.68477
vn 0.501685 -0.174202 -0.847329
vn 0.340734 0.0133071 -0.940066
vn 0.104686 -0.270036 -0.957142
vn -0.105587 -0.06738 -0.992125
vn -0.454888 -0.0456274 -0.889379
vn -0.318176 -0.92209 0.220261
vn -0.527601 -0.810676 0.253853
vn -0.0890426 -0.995921 -0.0145644
vn -0.878217 0.0725617 -0.472725
vn -0.856973 -0.0154625 -0.51513
vn -0.478287 0.876782 0.0499517
vn -0.436672 0.86964 0.230313
vn 0.0115801 0.556896 -0.830501
vn 0.0330671 -0.123943 0.991738
vn -0.362506 -0.628074 -0.688559
vn -0.814602 0.58002 -0.000520318
vn -0.860994 -0.495163 -0.116201
vn -0.536552 0.572612 0.61986
vn -0.637596 -0.76765 -0.064692
vn 0.937153 0.318662 -0.142125
vn 0.928406 0.333955 -0.1629
vn 0.00284781 -0.919969 -0.39198
vn -0.388986 0.110987 -0.914534
vn 0.712169 0.195307 -0.674293
vn -0.146728 -0.189571 0.970842
vn 0.75632 0.117536 0.643556
vn -0.534954 0.324357 -0.780139
vn 0.0941835 0.582794 0.807143
vn -0.226216 0.458294 0.85953
vn 0.209646 -0.840945 -0.49886
vn -0.686117 0.200622 -0.699281
vn -0.441706 0.177575 -0.879411
vn 0.576991 0.600747 -0.55334
vn 0.856483 -0.488521 -0.166686
vn 0.603951 0.235869 0.76132
vn -0.323737 -0.251372 -0.912144
vn -0.388976 0.111005 -0.914536
vn 0.722288 0.229415 0.652433
vn -0.554798 0.371834 0.744271
vn -0.580077 -0.218921 -0.784592
f 22//22 61//61 173//173
f 171//171 130//130 53//53
f 114//114 41//41 81//81
f 10//10 14//14 6//6
f 10//10 146//146 14//14
f 10//10 6//6 146//146
f 172//172 51//51 158//158
f 6//6 19//19 147//147
f 147//147 86//86 146//146
f 146//146 86//86 14//14
f 147//147 146//146 6//6
f 51//51 172//172 123//123
f 151//151 52//52 86//86
f 50//50 157//157 133//133
f 130//130 112//112 62//62
f 133//133 112//112 130//130
f 119//119 144//144 145//145
f 8//8 52//52 19//19
f 52//52 151//151 19//19
f 14//14 2//2 6//6
f 37//37 55//55 59//59
f 162//162 12//12 110//110
f 30//30 17//17 121//121
f 40//40 74//74 13//13
f 141//141 37//37 68//68
f 68//68 37//37 72//72
f 64//64 43//43 131//131
f 171//171 53//53 165//165
f 100//100 32//32 101//101
f 92//92 16//16 35//35
f 132//132 148//148 131//131
f 9//9 7//7 140//140
f 47//47 140//140 7//7
f 3//3 1//1 15//15
f 91//91 23//23 53//53
f 109//109 68//68 36//36
f 72//72 36//36 68//68
f 138//138 9//9 140//140
f 78//78 170//170 67//67
f 70//70 63//63 48//48
f 70//70 66//66 63//63
f 45//45 63//63 160//160
f 159//159 80//80 51//51
f 4//4 21//21 82//82
f 117//117 125//125 88//88
f 82//82 138//138 136//136
f 60//60 113//113 77//77
f 91//91 128//128 23//23
f 88//88 85//85 117//117
f 81//81 41//41 169//169
f 83//83 169//169 41//41
f 155//155 83//83 26//26
f 30//30 140//140 47//47
f 134//134 51//51 80//80
f 129//129 64//64 88//88
f 82//82 9//9 138//138
f 83//83 41//41 77//77
f 77//77 41//41 60//60
f 117//117 118//118 29//29
f 118//118 85//85 148//148
f 75//75 40//40 13//13
f 129//129 88//88 139//139
f 4//4 5//5 1//1
f 1//1 5//5 143//143
f 117//117 85//85 118//118
f 129//129 116//116 64//64
f 49//49 63//63 149//149
f 45//45 160//160 49//49
f 124//124 65//65 127//127
f 82//82 5//5 4//4
f 35//35 135//135 39//39
f 35//35 39//39 92//92
f 39//39 33//33 58//58
f 16//16 143//143 5//5
f 64//64 131//131 85//85
f 140//140 139//139 138//138
f 173//173 59//59 22//22
f 142//142 108//108 73//73
f 87//87 94//94 24//24
f 127//127 56//56 84//84
f 39//39 84//84 56//56
f 108//108 49//49 44//44
f 93//93 46//46 58//58
f 93//93 96//96 46//46
f 48//48 103//103 40//40
f 62//62 67//67 170//170
f 39//39 56//56 33//33
f 38//38 31//31 67//67
f 149//149 63//63 55//55
f 133//133 51//51 168//168
f 15//15 13//13 3//3
f 74//74 3//3 13//13
f 43//43 150//150 107//107
f 134//134 107//107 120//120
f 25//25 112//112 133//133
f 175//175 53//53 130//130
f 34//34 29//29 42//42
f 134//134 43//43 107//107
f 27//27 144//144 79//79
f 167//167 122//122 158//158
f 80//80 38//38 132//132
f 17//17 30//30 47//47
f 166//166 122//122 24//24
f 38//38 133//133 157//157
f 38//38 157//157 50//50
f 134//134 122//122 167//167
f 43//43 30//30 150//150
f 175//175 130//130 128//128
f 38//38 50//50 31//31
f 113//113 28//28 77//77
f 30//30 43//43 64//64
f 147//147 19//19 151//151
f 9//9 82//82 21//21
f 49//49 86//86 52//52
f 86//86 49//49 121//121
f 18//18 2//2 14//14
f 102//102 101//101 29//29
f 30//30 64//64 116//116
f 153//153 74//74 45//45
f 53//53 23//23 76//76
f 76//76 23//23 62//62
f 99//99 156//156 38//38
f 41//41 114//114 60//60
f 3//3 8//8 2//2
f 127//127 97//97 56//56
f 89//89 58//58 46//46
f 82//82 135//135 5//5
f 129//129 139//139 116//116
f 4//4 18//18 21//21
f 111//111 141//141 68//68
f 136//136 137//137 124//124
f 93//93 58//58 33//33
f 53//53 175//175 91//91
f 37//37 141//141 27//27
f 53//53 78//78 165//165
f 16//16 5//5 35//35
f 35//35 5//5 135//135
f 25//25 155//155 26//26
f 39//39 135//135 84//84
f 84//84 135//135 127//127
f 42//42 57//57 66//66
f 55//55 66//66 57//57
f 25//25 26//26 98//98
f 26//26 123//123 24//24
f 51//51 155//155 168//168
f 26//26 77//77 95//95
f 51//51 154//154 152//152
f 51//51 123//123 154//154
f 154//154 123//123 152//152
f 45//45 164//164 153//153
f 151//151 86//86 147//147
f 115//115 152//152 123//123
f 45//45 52//52 164//164
f 18//18 1//1 2//2
f 18//18 4//4 1//1
f 75//75 89//89 46//46
f 75//75 46//46 96//96
f 91//91 175//175 128//128
f 2//2 1//1 3//3
f 155//155 51//51 83//83
f 93//93 97//97 96//96
f 45//45 74//74 103//103
f 106//106 98//98 94//94
f 106//106 61//61 98//98
f 106//106 87//87 109//109
f 40//40 103//103 74//74
f 27//27 24//24 122//122
f 49//49 160//160 63//63
f 87//87 24//24 27//27
f 104//104 105//105 95//95
f 104//104 115//115 105//105
f 111//111 109//109 87//87
f 27//27 111//111 87//87
f 119//119 145//145 134//134
f 137//137 136//136 138//138
f 87//87 106//106 94//94
f 116//116 140//140 30//30
f 106//106 109//109 61//61
f 38//38 22//22 99//99
f 59//59 99//99 22//22
f 61//61 22//22 98//98
f 109//109 36//36 61//61
f 26//26 24//24 94//94
f 81//81 115//115 114//114
f 101//101 126//126 125//125
f 42//42 118//118 132//132
f 37//37 59//59 72//72
f 132//132 156//156 99//99
f 17//17 9//9 18//18
f 38//38 156//156 132//132
f 94//94 98//98 26//26
f 163//163 67//67 62//62
f 163//163 62//62 112//112
f 8//8 3//3 174//174
f 139//139 140//140 116//116
f 95//95 28//28 104//104
f 96//96 97//97 90//90
f 104//104 113//113 115//115
f 104//104 28//28 113//113
f 96//96 69//69 75//75
f 95//95 77//77 28//28
f 26//26 83//83 77//77
f 54//54 75//75 69//69
f 2//2 8//8 6//6
f 8//8 19//19 6//6
f 1//1 143//143 15//15
f 63//63 103//103 48//48
f 48//48 40//40 54//54
f 100//100 90//90 32//32
f 100//100 69//69 90//90
f 54//54 69//69 71//71
f 111//111 68//68 109//109
f 92//92 89//89 16//16
f 102//102 100//100 101//101
f 100//100 71//71 69//69
f 80//80 159//159 38//38
f 34//34 102//102 29//29
f 89//89 92//92 58//58
f 71//71 102//102 34//34
f 34//34 66//66 71//71
f 54//54 70//70 48//48
f 13//13 16//16 89//89
f 13//13 89//89 75//75
f 70//70 54//54 66//66
f 71//71 66//66 54//54
f 60//60 114//114 113//113
f 114//114 115//115 113//113
f 49//49 52//52 45//45
f 139//139 137//137 138//138
f 139//139 88//88 137//137
f 86//86 110//110 14//14
f 88//88 64//64 85//85
f 110//110 11//11 14//14
f 20//20 14//14 11//11
f 20//20 11//11 12//12
f 12//12 11//11 110//110
f 20//20 12//12 18//18
f 110//110 121//121 162//162
f 110//110 86//86 121//121
f 73//73 79//79 120//120
f 27//27 73//73 108//108
f 134//134 120//120 119//119
f 55//55 37//37 44//44
f 131//131 80//80 132//132
f 7//7 17//17 47//47
f 7//7 9//9 17//17
f 134//134 145//145 122//122
f 132//132 118//118 148//148
f 81//81 51//51 152//152
f 81//81 152//152 115//115
f 25//25 38//38 67//67
f 90//90 65//65 32//32
f 126//126 101//101 32//32
f 33//33 56//56 93//93
f 56//56 97//97 93//93
f 101//101 125//125 29//29
f 25//25 98//98 22//22
f 25//25 22//22 38//38
f 133//133 38//38 51//51
f 39//39 58//58 92//92
f 71//71 100//100 102//102
f 15//15 16//16 13//13
f 15//15 143//143 16//16
f 150//150 30//30 121//121
f 107//107 150//150 121//121
f 90//90 97//97 65//65
f 131//131 43//43 134//134
f 37//37 27//27 108//108
f 105//105 123//123 95//95
f 105//105 115//115 123//123
f 26//26 95//95 123//123
f 145//145 27//27 122//122
f 121//121 49//49 142//142
f 107//107 121//121 120//120
f 79//79 119//119 120//120
f 73//73 120//120 142//142
f 145//145 144//144 27//27
f 142//142 120//120 121//121
f 59//59 42//42 99//99
f 99//99 42//42 132//132
f 66//66 34//34 42//42
f 42//42 29//29 118//118
f 27//27 141//141 111//111
f 131//131 134//134 80//80
f 44//44 149//149 55//55
f 142//142 49//49 108//108
f 37//37 108//108 44//44
f 44//44 49//49 149//149
f 45//45 103//103 63//63
f 55//55 57//57 59//59
f 59//59 57//57 42//42
f 137//137 88//88 124//124
f 124//124 88//88 126//126
f 65//65 97//97 127//127
f 55//55 63//63 66//66
f 54//54 40//40 75//75
f 69//69 96//96 90//90
f 124//124 127//127 135//135
f 124//124 135//135 136//136
f 82//82 136//136 135//135
f 124//124 126//126 65//65
f 126//126 32//32 65//65
f 125//125 126//126 88//88
f 117//117 29//29 125//125
f 72//72 161//161 36//36
f 72//72 59//59 161//161
f 161//161 59//59 173//173
f 166//166 158//158 122//122
f 123//123 166//166 24//24
f 79//79 144//144 119//119
f 79//79 73//73 27//27
f 153//153 8//8 174//174
f 161//161 173//173 36//36
f 162//162 17//17 12//12
f 12//12 17//17 18//18
f 36//36 173//173 61//61
f 17//17 162//162 121//121
f 25//25 163//163 112//112
f 25//25 67//67 163//163
f 123//123 172//172 166//166
f 14//14 20//20 18//18
f 158//158 166//166 172//172
f 8//8 164//164 52//52
f 153//153 164//164 8//8
f 78//78 50//50 165//165
f 165//165 50//50 171//171
f 133//133 130//130 171//171
f 38//38 159//159 51//51
f 51//51 167//167 158//158
f 134//134 167//167 51//51
f 50//50 133//133 171//171
f 25//25 168//168 155//155
f 133//133 168//168 25//25
f 31//31 50//50 78//78
f 31//31 78//78 67//67
f 131//131 148//148 85//85
f 81//81 169//169 51//51
f 51//51 169//169 83//83
f 21//21 18//18 9//9
f 170//170 76//76 62//62
f 53//53 76//76 78//78
f 170//170 78//78 76//76
f 23//23 128//128 62//62
f 130//130 62//62 128//128
f 74//74 153//153 174//174
f 3//3 74//74 174//174
